<svg width="16" height="16" viewBox="0 0 16 16" fill="none" xmlns="http://www.w3.org/2000/svg">
<path d="M0.000714063 3.99447C0.000714063 4.66426 0.246352 5.40045 0.558397 6.18164C0.870442 6.96282 1.27246 7.69902 1.58522 8.25671C2.43353 9.72982 3.52676 11.1801 4.77636 12.3847C6.02597 13.5893 7.49909 14.594 9.15 15.1967C10.1097 15.5758 11.0694 16 12.1405 16C12.676 16 13.4351 15.7993 14.1263 15.5087C14.7961 15.2188 15.398 14.7725 15.6215 14.237C15.7108 14.0363 15.8222 13.7686 15.8893 13.4558C15.9564 13.1659 16.0007 12.8753 16.0007 12.6746C16.0007 12.5632 16.0007 12.4511 15.9786 12.429C15.9115 12.2947 15.7551 12.1833 15.5766 12.0719C15.1745 11.8713 15.1081 11.8042 14.5055 11.4471C13.8807 11.0901 13.2337 10.6881 12.6753 10.3982C12.4076 10.2418 12.229 10.1747 12.1619 10.1747C11.8049 10.1747 11.3586 10.666 10.9794 11.2015C10.5774 11.737 10.1311 12.2283 9.81907 12.2283C9.66269 12.2283 9.50632 12.1612 9.3278 12.0498C9.14928 11.9384 8.97077 11.8492 8.85938 11.782C6.8957 10.666 5.57897 9.34994 4.4636 7.4084C4.32936 7.1849 4.01732 6.71647 4.01732 6.47084C4.01732 6.18093 4.41933 5.84603 4.82064 5.489C5.1998 5.1541 5.60182 4.7528 5.60182 4.26153C5.60182 4.1944 5.55684 3.99375 5.46758 3.70384C5.26693 3.12331 4.99915 2.45423 4.77565 1.80729C4.66426 1.49453 4.575 1.27175 4.55215 1.16035C4.50716 1.09323 4.48503 1.00397 4.46289 0.892578C4.44076 0.781184 4.39577 0.691927 4.37363 0.602669C4.30651 0.402017 4.19512 0.245637 4.08372 0.15638C3.97233 0.111394 3.70456 0.0449857 3.43678 0.0221357C3.16901 0.0221357 2.85625 0 2.72272 0C2.6556 0 2.56634 -2.42144e-07 2.47708 0.0221357H2.18717C1.47311 0.334895 0.9597 0.9597 0.580533 1.6959C0.223502 2.4321 0 3.25827 0 3.99447H0.000714063Z" fill="#1274E0"/>
</svg>
