<svg width="18" height="20" viewBox="0 0 18 20" fill="none" xmlns="http://www.w3.org/2000/svg">
<path d="M17.571 16.2142L7.46659 6.29861C7.61257 6.04103 7.73204 5.77166 7.81659 5.49376C7.8256 5.40471 7.84364 5.31229 7.87632 5.21815C7.89378 5.16516 7.90846 5.11105 7.9231 5.05752C8.15417 3.80745 7.78726 2.46886 6.82067 1.50227C6.51518 1.19678 6.17197 0.951607 5.80675 0.765625C5.78872 0.765625 5.77068 0.767897 5.75322 0.771829L5.42858 0.851293C5.3677 0.867092 5.31528 0.9054 5.28372 0.959506C5.25216 1.01304 5.24372 1.07785 5.2606 1.13817L5.95836 3.64398C5.98429 3.73754 5.94934 3.83674 5.87099 3.89366L4.28557 5.04511C4.23709 5.07949 4.17736 5.09471 4.11816 5.08681L2.43354 4.85459C2.34167 4.84218 2.26672 4.77682 2.2419 4.68776L1.50533 2.04113C1.4715 1.92108 1.34864 1.84837 1.22748 1.87823L0.801371 1.98251C0.779404 1.98814 0.759673 1.99943 0.739942 2.01126C0.250748 2.69715 0.00387895 3.50258 0.000488281 4.30909C0.00781068 5.32135 0.395573 6.33133 1.16771 7.10347C2.09935 8.03456 3.37481 8.39978 4.586 8.22899C4.76073 8.20363 4.92024 8.18613 5.06676 8.176C5.20653 8.13765 5.34407 8.08752 5.48045 8.03283C7.17467 9.74847 15.4997 18.2854 15.4997 18.2854C16.0718 18.8575 16.9989 18.8575 17.571 18.2854C18.143 17.7134 18.143 16.7863 17.571 16.2142ZM17.053 17.7675C16.7673 18.0538 16.304 18.0538 16.0177 17.7675C15.7313 17.4818 15.7313 17.0179 16.0177 16.7316C16.304 16.4458 16.7673 16.4458 17.053 16.7316C17.3393 17.0179 17.3393 17.4818 17.053 17.7675Z" fill="white"/>
<path d="M14.4205 5.68236L16.0628 5.26585L17.6438 2.50473L16.8778 1.77826L16.1124 1.05176L13.4381 2.77526L13.1084 4.43622L10.2695 7.42841L11.5613 8.6954L14.4205 5.68236Z" fill="white"/>
<path d="M6.19005 10.8795C5.86314 11.1625 5.39988 10.8119 4.79342 11.4516L0.785045 15.6753C-0.0164149 16.5195 0.0185378 17.8542 0.862814 18.6556C1.70709 19.4571 3.04117 19.4221 3.8426 18.5779L7.85155 14.3531C8.45801 13.7139 8.08432 13.2704 8.34922 12.9288C8.40333 12.8584 8.45293 12.8099 8.50252 12.7733C7.74392 11.9966 7.01799 11.2538 6.38956 10.6118C6.36309 10.7009 6.30278 10.7826 6.19005 10.8795Z" fill="white"/>
</svg>
