<svg width="458" height="254" viewBox="0 0 458 254" fill="none" xmlns="http://www.w3.org/2000/svg">
<g clip-path="url(#clip0_167_1618)">
<path d="M28.0567 251.974C28.0567 251.974 -27.8573 191.94 18.6014 126.947C59.8227 69.2778 107.882 73.2213 143.141 96.6237C158.159 106.59 201.457 97.8512 238.309 39.1734C288.564 -40.8487 462.769 7.6843 431.005 130.802C415.634 190.383 477.786 192.547 446.116 252.104L28.0567 251.979V251.974Z" fill="#E6E6E6"/>
<path d="M201.281 141.746C201.281 141.746 206.361 137.967 207.33 137.627C208.299 137.286 211.492 136.878 211.644 137.142C211.798 137.406 212.248 138.212 211.694 138.5C211.141 138.788 210.443 138.702 210.656 138.891C210.869 139.08 212.951 137.981 213.457 139.107C213.963 140.231 214.456 144.108 212.009 145.335C209.562 146.56 203.456 145.612 203.019 145.756C199.316 146.973 201.281 141.746 201.281 141.746Z" fill="#1361B7"/>
<path d="M203.105 143.093C202.924 140.09 201.403 139.802 201.403 139.802C201.403 139.802 172.119 138.372 169.587 137.906C167.054 137.44 143.375 117.518 143.375 117.518C143.375 117.518 134.205 109.144 127.95 112.166C122.513 114.791 120.889 119.784 120.7 124.345C120.473 129.782 123.463 134.796 128.166 137.001C138.723 141.948 159.836 151.654 164.618 152.429C175.258 154.154 202.399 147.335 202.399 147.335C202.399 147.335 203.248 145.45 203.105 143.091V143.093Z" fill="#1361B7"/>
<path d="M295.871 118.753H199.255V251.987H295.871V118.753Z" fill="#657285"/>
<path d="M271.123 118.753H173.908V251.987H271.123V118.753Z" fill="#B8C1C9"/>
<path d="M173.908 136.114H271.123V135.462H173.908V136.114Z" fill="#657285"/>
<path d="M173.908 235.883H271.123V234.626H173.908V235.883Z" fill="#9E9E9E"/>
<path d="M190.239 132.836C193.222 132.836 195.641 130.418 195.641 127.434C195.641 124.45 193.222 122.031 190.239 122.031C187.255 122.031 184.836 124.45 184.836 127.434C184.836 130.418 187.255 132.836 190.239 132.836Z" fill="#657285"/>
<path d="M148.227 252.008H169.973C169.63 251.18 168.802 250.102 166.784 249.748C163.359 249.148 157.413 247.295 158.175 242.351C158.947 237.339 150.605 236.692 150.605 236.692C150.605 236.692 147.135 250.099 148.227 252.008Z" fill="#2F3133"/>
<path d="M263.25 132.837H248.842C246.691 132.837 244.944 131.09 244.944 128.938V125.935C244.944 123.783 246.69 122.034 248.845 122.034H263.252C265.404 122.034 267.153 123.781 267.153 125.935V128.938C267.153 131.09 265.407 132.837 263.255 132.837H263.25Z" fill="#657285"/>
<path d="M201.755 132.11H215.444C216.36 132.11 217.103 131.367 217.103 130.451V125.32C217.103 124.404 216.36 123.661 215.444 123.661H201.755C200.839 123.661 200.096 124.404 200.096 125.32V130.451C200.096 131.367 200.839 132.11 201.755 132.11Z" fill="#657285"/>
<path d="M215.979 220.607C235.492 220.607 251.31 203.876 251.31 183.236C251.31 162.597 235.492 145.865 215.979 145.865C196.466 145.865 180.647 162.597 180.647 183.236C180.647 203.876 196.466 220.607 215.979 220.607Z" fill="#2F3133"/>
<path d="M110.145 201.71C110.323 202.133 110.56 202.509 110.85 202.828C111.191 203.201 111.801 203.563 112.65 203.912C115.489 205.081 120.979 206.103 127.86 206.801C135.009 207.528 143.655 207.914 152.386 207.765C155.073 207.72 157.77 207.624 160.433 207.469C179.74 206.37 197.282 202.32 197.303 193.205C197.327 183.936 167.755 177.051 145.322 173.166C143 172.764 140.753 172.388 138.625 172.053C128.193 170.397 120.572 169.529 120.572 169.529C120.572 169.529 120.149 170.279 119.464 171.558C119.123 172.194 118.724 172.958 118.274 173.829C116.035 178.193 112.709 185.161 110.896 191.312C109.652 195.535 109.117 199.369 110.145 201.707V201.71Z" fill="#464A4F"/>
<path d="M110.145 201.71C110.955 202.453 111.793 203.188 112.653 203.912C115.492 205.081 120.982 206.103 127.863 206.801C135.012 207.528 167.798 207.571 176.529 207.419C166.28 190.851 135.182 187.566 133.273 185.369C133.119 185.188 112.712 185.164 110.899 191.312C109.655 195.535 109.12 199.369 110.148 201.707L110.145 201.71Z" fill="#2F3133"/>
<path d="M195.905 197.399C195.905 197.399 162.592 239.086 160.348 244.129C160.348 244.129 151.169 244.984 148.962 238.426C148.962 238.426 164.997 193.637 172.045 189.946C179.093 186.256 195.905 197.396 195.905 197.396V197.399Z" fill="#464A4F"/>
<path d="M135.166 101.957C135.166 101.957 144.456 114.672 152.737 115.351C152.737 115.351 151.68 110.566 149.236 107.546C149.893 106.486 150.463 105.517 150.953 104.652C152.58 101.771 153.302 100.048 153.302 100.048L149.494 93.1569L148.708 89.4531C148.064 91.1919 147.311 92.7975 146.469 94.1208C142.129 100.935 135.171 101.957 135.171 101.957H135.166Z" fill="#F0BA93"/>
<path d="M146.101 94.0542C146.101 94.0542 144.754 100.423 150.95 104.654C152.577 101.773 153.299 100.051 153.299 100.051L149.491 93.1595C146.447 92.7095 146.104 94.0542 146.104 94.0542H146.101Z" fill="#D19E78"/>
<path d="M154.458 103.893C154.458 103.893 142.806 97.5452 146.869 90.348C150.932 83.1533 152.168 77.4871 159.78 81.2362C167.393 84.9853 167.273 88.54 166.501 91.2719C165.729 94.0038 157.592 105.358 154.458 103.893Z" fill="#F0BA93"/>
<path d="M146.911 76.02C146.847 75.8389 146.621 75.6259 146.035 75.3623C146.035 75.3623 146.629 75.2424 147.276 75.4741C147.726 74.678 148.748 73.3546 150.319 73.5436C150.319 73.5436 149.39 73.6635 148.942 74.5209C151.267 73.4318 155.306 73.5463 164.836 78.1341C177.396 84.1811 169.869 90.9577 167.802 91.3145C165.736 91.6713 162.575 87.2858 159.354 86.3299C156.129 85.374 153.762 89.7328 152.46 89.9512C151.155 90.1722 152.002 89.2189 150.822 88.0048C149.64 86.7932 148.572 89.155 148.381 90.8831C148.189 92.6139 145.417 93.9239 145.417 93.9239L144.267 90.9737C143.116 88.0261 144.805 78.0676 146.469 76.4513C146.615 76.3075 146.764 76.1637 146.913 76.0173L146.911 76.02Z" fill="#2F3133"/>
<path d="M77.3377 237.715C77.3377 237.715 74.6271 242.191 73.996 243.639C73.365 245.09 74.6031 248.177 76.4617 248.64C78.1019 249.05 78.3469 252.211 78.3469 252.211H70.4014C69.56 252.211 68.8011 251.707 68.4763 250.93C67.3553 248.246 67.0996 244.758 66.8733 243.589C66.3994 241.134 65.4594 239.075 65.8748 236.575C66.2875 234.086 70.2017 232.642 77.3377 232.666C85.1767 232.693 77.3377 237.709 77.3377 237.709V237.715Z" fill="#2F3133"/>
<path d="M102.513 191.69C104.774 200.267 110.254 214.078 116.508 226.321C119.68 232.533 123.053 238.343 126.307 242.862C129.971 247.95 133.478 251.396 136.375 251.936C137.142 252.077 137.863 252.016 138.534 251.731C140.201 251.02 141.418 249.063 142.275 246.22C147.566 228.694 139.293 177.597 139.293 177.597C139.293 177.597 130.959 177.525 122.111 178.236C112.943 178.973 103.227 180.547 101.645 183.896C101.123 185.007 101.486 187.813 102.511 191.696L102.513 191.69Z" fill="#464A4F"/>
<path d="M100.697 183.193C106.691 189.544 150.692 176.406 147.004 173.059C146.067 172.21 146.387 171.187 146.006 169.819C144.179 163.324 147.814 152.207 149.374 147.899C149.739 146.901 149.989 146.27 150.035 146.142C151.523 142.119 152.673 137.933 153.427 133.888C154.878 126.124 154.851 118.902 152.868 114.48C152.854 114.456 152.852 114.437 152.838 114.418C144.595 112.009 140.057 99.8828 140.057 99.8828C140.057 99.8828 113.944 107.298 104.468 144.56C104.468 144.56 103.978 146.935 103.376 150.501H103.373C103.192 151.595 102.995 152.801 102.801 154.087C101.789 160.717 101.201 169.219 100.602 175.551C100.578 175.77 100.556 175.993 100.535 176.222C100.234 178.952 99.7122 182.136 100.708 183.193H100.697Z" fill="#1274E0"/>
<path d="M76.4966 240.742C77.6443 240.753 81.0924 241.283 85.8001 242.108C102.852 245.093 136.375 251.947 136.375 251.947C136.375 251.947 136.375 251.944 136.378 251.934C136.405 251.707 136.777 248.717 136.865 244.862C137.001 238.711 136.407 230.353 132.522 227.509C130.459 225.994 124.138 225.839 116.512 226.321C100.44 227.333 78.5762 231.194 78.5762 231.194C75.0002 235.593 76.4993 240.742 76.4993 240.742H76.4966Z" fill="#464A4F"/>
<path d="M102.514 191.69C111.383 191.411 133.633 180.488 133.268 180.4C129.125 179.381 125.421 178.675 122.114 178.23C112.946 178.968 103.23 180.541 101.648 183.891C101.126 185.001 101.488 187.808 102.514 191.69Z" fill="#2F3133"/>
<path d="M221.741 220.607C240.281 220.607 255.31 203.876 255.31 183.236C255.31 162.597 240.281 145.865 221.741 145.865C203.202 145.865 188.173 162.597 188.173 183.236C188.173 203.876 203.202 220.607 221.741 220.607Z" fill="#657285"/>
<path d="M194.67 183.236C194.67 187.536 195.479 191.626 196.939 195.325C201.122 205.952 210.651 213.37 221.742 213.37C236.69 213.37 248.811 199.881 248.811 183.236C248.811 170.889 242.143 160.284 232.6 155.627C229.274 154.002 225.602 153.102 221.742 153.102C206.791 153.102 194.67 166.592 194.67 183.236Z" fill="#EAEAEA"/>
<path d="M130.999 125.344C130.999 125.344 131.516 165.702 146.009 169.819C144.182 163.324 147.817 152.208 149.377 147.899C145.641 137.52 138.766 127.051 131.002 125.344H130.999Z" fill="#1361B7"/>
<path d="M135.675 101.699C135.675 101.699 146.837 104.021 147.926 113.803C148.72 120.926 140.931 137.057 140.931 137.057L139.448 135.574C139.448 135.574 146.286 115.657 145.234 112.27C143.887 107.924 137.467 101.427 131.566 104.023L135.675 101.701V101.699Z" fill="#464A4F"/>
<path d="M100.698 183.193C106.691 189.544 151.64 176.547 147.953 173.198C147.015 172.348 146.387 171.187 146.006 169.816C144.179 163.322 147.814 152.205 149.374 147.897C149.739 146.898 149.989 146.267 150.035 146.139L147.763 143.871L139.445 135.571C139.445 135.571 136.985 138.362 132.336 141.528C126.244 145.681 116.386 150.479 103.368 150.498H103.366C103.185 151.593 102.988 152.799 102.793 154.085C101.781 160.715 101.193 169.217 100.594 175.549C100.57 175.767 100.549 175.991 100.527 176.22C100.226 178.949 99.7044 182.134 100.7 183.191L100.698 183.193Z" fill="#464A4F"/>
<path d="M132.339 141.53C134.003 153.262 137.72 167.465 146.006 169.819C144.18 163.324 147.814 152.208 149.375 147.899C148.89 146.552 148.352 145.205 147.767 143.873L139.448 135.574C139.448 135.574 136.988 138.364 132.339 141.53Z" fill="#2F3133"/>
<path d="M191.908 161.37C191.908 161.37 197.992 160.033 199.015 160.113C200.037 160.193 203.139 161.072 203.185 161.362C203.23 161.652 203.352 162.533 202.735 162.568C202.117 162.605 201.502 162.262 201.63 162.509C201.758 162.757 204.087 162.603 204.143 163.782C204.197 164.962 203.235 168.543 200.522 168.666C197.809 168.791 192.507 165.596 192.049 165.55C188.178 165.178 191.911 161.37 191.911 161.37H191.908Z" fill="#F0BA93"/>
<path d="M193.104 163.255C194.036 160.558 192.736 159.719 192.736 159.719C192.736 159.719 166.168 147.119 163.995 145.732C161.822 144.345 147.217 117.742 147.217 117.742C147.217 117.742 141.801 106.864 134.908 107.083C128.914 107.272 125.586 111.008 123.738 114.924C121.536 119.592 122.465 125.136 126.009 128.885C133.965 137.304 149.941 153.973 154.079 156.505C163.292 162.137 190.896 166.693 190.896 166.693C190.896 166.693 192.371 165.375 193.104 163.255Z" fill="#1274E0"/>
<path d="M85.7995 242.111C102.851 245.096 136.375 251.95 136.375 251.95C136.375 251.95 136.375 251.947 136.377 251.936C137.144 252.077 137.866 252.016 138.537 251.731C140.204 251.02 141.421 249.063 142.278 246.219C142.278 246.219 140.297 245.639 136.862 244.867C134.159 244.257 130.557 243.527 126.307 242.864C115.553 241.184 100.663 239.925 85.7969 242.114L85.7995 242.111Z" fill="#2F3133"/>
<path d="M232.195 245.466H258.795V213.133C258.795 210.619 260.854 208.561 263.367 208.561H309.08C311.594 208.561 313.652 210.619 313.652 213.133V247.418C313.652 249.931 311.597 251.989 309.08 251.989H274.391C274.018 252.133 273.613 252.213 273.19 252.213H232.195C230.331 252.213 228.821 250.703 228.821 248.839C228.821 246.976 230.331 245.466 232.195 245.466Z" fill="#1361B7"/>
<path d="M268.7 208.561H271.11C273.006 207.429 283.22 201.611 293.037 201.539C300.12 201.489 308.193 208.449 308.678 208.524C308.763 208.537 308.814 208.55 308.84 208.561H314.416C316.929 208.561 318.988 210.619 318.988 213.133V247.418C318.988 249.931 316.932 251.989 314.416 251.989H268.703C266.189 251.989 264.131 249.931 264.131 247.418V213.133C264.131 210.619 266.189 208.561 268.703 208.561H268.7ZM292.987 204.016C289.562 203.912 281.963 207.184 278.925 208.561H304.191C302.567 207.645 296.11 204.111 292.984 204.016H292.987Z" fill="#1274E0"/>
<path d="M399.586 234.12C399.586 234.12 403.41 237.664 402.664 240.183C401.919 242.702 398.468 244.379 398.002 247.458C397.536 250.536 395.669 252.213 393.992 252.213H385.988C385.988 252.213 384.752 250.048 387.737 249.393C390.722 248.741 391.848 245.122 391.659 241.765C391.473 238.407 391.939 233.931 391.939 233.931L398.281 232.44L399.586 234.12Z" fill="#2F3133"/>
<path d="M351.926 251.87C351.633 252.016 350.779 252.128 349.57 252.213H330.212C330.302 251.593 330.808 249.809 333.644 249.351C336.986 248.81 342.78 246.866 344.074 242.59C344.114 242.452 344.151 242.311 344.183 242.169C345.208 237.6 352.672 243.57 352.672 243.57C352.672 243.57 352.693 243.754 352.728 244.063C352.901 245.737 353.343 251.161 351.929 251.872L351.926 251.87Z" fill="#2F3133"/>
<path d="M334.53 129.625C334.53 129.625 335.665 143.764 336.996 160.76C338.807 183.848 340.982 212.206 341.198 217.579C341.57 226.909 343.064 241.831 343.064 241.831C343.064 241.831 346.606 245.375 353.696 243.881C353.696 243.881 360.015 222.58 361.82 200.04C361.847 199.67 361.876 199.3 361.905 198.927C363.583 175.983 366.195 127.668 366.195 127.668L334.53 129.628V129.625Z" fill="#464A4F"/>
<path d="M334.53 129.625C334.53 129.625 335.665 143.764 336.996 160.76L361.82 200.04C361.847 199.67 361.876 199.3 361.905 198.927C363.583 175.983 366.195 127.668 366.195 127.668L334.53 129.628V129.625Z" fill="#2F3133"/>
<path d="M339.707 131.305C339.707 131.305 360.132 182.512 373.563 206.574C386.994 230.637 391.19 237.355 391.19 237.355C391.19 237.355 398.885 234.277 399.586 232.179C399.586 232.179 394.449 185.723 385.455 174.398C380.371 168 374.402 148.797 374.122 142.081C373.843 135.366 372.303 122.074 372.303 122.074L339.704 131.308L339.707 131.305Z" fill="#464A4F"/>
<path d="M299.62 124.217C299.62 124.217 292.412 127.676 291.443 128.565C290.474 129.452 288.078 133.814 288.261 134.141C288.445 134.469 288.804 134.573 289.457 134.12C290.109 133.667 291.944 131.779 292.01 132.131C292.077 132.482 287.116 138.319 287.995 139.554C288.871 140.79 293.845 140.425 296.686 138.404C299.527 136.386 302.36 128.96 302.789 128.555C306.41 125.117 299.623 124.217 299.623 124.217H299.62Z" fill="#F0BA93"/>
<path d="M299.295 127.926C297.293 126.185 297.242 125.746 297.242 125.746C297.242 125.746 310.023 103.643 311.131 101.518C312.239 99.393 319.09 66.1972 319.09 66.1972L342.772 59.3301C342.772 59.3301 326.09 102.463 323.177 107.794C318.363 116.602 302.647 129.567 302.647 129.567C302.647 129.567 300.869 129.29 299.295 127.924V127.926Z" fill="#1361B7"/>
<path d="M330.707 50.692C330.707 50.692 322.372 65.3555 314.227 67.27C314.227 67.27 314.565 62.344 316.549 58.9757C315.737 58.0171 315.023 57.1384 314.406 56.3503C312.355 53.7222 311.381 52.1139 311.381 52.1139L314.145 44.6823L316.022 39.6392C316.925 41.2767 317.918 42.6693 318.954 43.8622C324.292 49.9997 330.709 50.692 330.709 50.692H330.707Z" fill="#F0BA93"/>
<path d="M318.954 43.8623C318.954 43.8623 319.947 51.2114 314.409 56.3504C312.358 53.7223 311.384 52.114 311.384 52.114L314.148 44.6824C317.111 43.7798 318.954 43.8623 318.954 43.8623Z" fill="#D19E78"/>
<path d="M309.185 53.1979C309.185 53.1979 321.638 48.3438 318.493 40.6353C315.351 32.9268 314.843 27.1088 306.759 29.8834C298.675 32.6579 298.339 36.2232 298.763 39.051C299.186 41.8788 305.864 54.2604 309.185 53.1979Z" fill="#F0BA93"/>
<path d="M373.51 125.943C368.488 133.164 330.928 142.814 331.378 137.816C331.548 135.901 331.777 132.53 331.373 127.956C331.277 126.883 331.144 125.746 330.973 124.55C330.015 117.979 327.751 109.535 322.695 99.7553C322.317 99.023 321.923 98.2855 321.513 97.5373C319.428 93.7536 317.657 89.7542 316.307 85.8374C313.703 78.3179 312.651 71.1206 313.969 66.4183C313.974 66.3943 313.98 66.373 313.99 66.3544C321.84 62.7251 324.881 48.6475 324.881 48.6475C324.881 48.6475 351.665 53.4536 366.669 89.1551C366.669 89.1551 368.11 93.0746 369.755 98.3946C371.755 104.846 374.058 113.354 374.458 119.425C374.652 122.306 374.412 124.641 373.51 125.943Z" fill="#1274E0"/>
<path d="M320.283 26.3154C320.371 26.1423 320.623 25.9586 321.241 25.7695C321.241 25.7695 320.661 25.5752 319.987 25.7243C319.638 24.8722 318.789 23.4184 317.194 23.4077C317.194 23.4077 318.107 23.6447 318.445 24.5607C316.262 23.1761 312.212 22.774 302.104 26.1396C288.783 30.5757 295.44 38.3082 297.458 38.9286C299.476 39.549 303.193 35.5709 306.538 35.0277C309.879 34.4845 311.69 39.1416 312.963 39.5277C314.236 39.9138 313.514 38.854 314.848 37.7943C316.182 36.7319 316.949 39.2295 316.92 40.9815C316.89 42.7336 319.492 44.3978 319.492 44.3978L321.018 41.5993C322.543 38.8008 322.128 28.6373 320.671 26.808C320.544 26.6456 320.413 26.4831 320.283 26.318V26.3154Z" fill="#2F3133"/>
<path d="M374.458 119.424C342.138 109.676 336.999 71.1416 336.999 71.1416C336.999 71.1416 355.401 85.2033 369.756 98.3943C371.755 104.846 374.058 113.353 374.458 119.424Z" fill="#1361B7"/>
<path d="M366.845 139.693L370.421 138.532C371.837 137.238 379.535 130.456 388.125 127.618C394.324 125.57 402.906 127.913 403.348 127.825C404.469 127.602 399.806 129.162 399.806 129.162C399.806 129.162 391.792 128.334 388.62 129.282C385.596 130.184 379.642 134.53 377.277 136.311L397.319 129.809C398.994 129.266 400.81 130.192 401.356 131.867L408.769 154.721C409.312 156.396 408.386 158.212 406.711 158.758L376.239 168.642C374.564 169.185 372.748 168.258 372.202 166.584L364.789 143.73C364.246 142.055 365.173 140.239 366.848 139.693H366.845Z" fill="#1361B7"/>
<path d="M376.745 136.497L407.217 126.614C408.899 126.068 410.707 126.991 411.253 128.673L418.665 151.526C419.21 153.208 418.288 155.016 416.606 155.561L386.134 165.445C384.452 165.99 382.644 165.068 382.099 163.386L374.686 140.533C374.141 138.851 375.063 137.043 376.745 136.497Z" fill="#1274E0"/>
<path d="M385.255 121.72C382.691 122.894 381.74 121.696 381.74 121.696C381.74 121.696 366.805 96.7571 365.231 94.7494C363.658 92.7444 336.088 80.9114 336.088 80.9114C336.088 80.9114 324.868 76.6218 324.423 69.8159C324.037 63.9021 327.394 60.2675 331.072 58.0761C335.454 55.464 340.998 55.8474 345.027 58.9788C354.072 66.0029 372 80.1312 374.886 83.9628C381.309 92.4888 388.426 119.22 388.426 119.22C388.426 119.22 387.268 120.799 385.255 121.72Z" fill="#1274E0"/>
<path d="M384.171 131.513C384.267 131.673 384.347 131.769 384.397 131.774C384.687 131.79 385.566 131.825 385.542 131.215C385.534 131.037 385.508 130.903 385.462 130.749L384.171 131.516V131.513Z" fill="#F0BA93"/>
<path d="M391.328 128.459C391.189 125.778 387.534 120.868 387.446 120.423C386.708 116.65 383.318 120.689 383.318 120.689C383.318 120.689 382.589 126.803 382.765 127.801C382.834 128.198 383.06 128.904 383.326 129.615C383.361 129.599 383.396 129.585 383.43 129.569C384.309 129.138 385.358 129.647 385.563 130.603L385.571 130.642C385.755 131.345 386.026 132.538 386.868 132.496C388.034 132.437 391.464 131.143 391.325 128.462L391.328 128.459Z" fill="#F0BA93"/>
<path d="M301.886 140.556L287.249 127.942C287.558 126.576 287.121 125.091 285.987 124.111C285.457 123.655 284.842 123.368 284.2 123.24L283.534 124.015L285.625 125.817L285.124 128.448L285.031 128.557L282.504 129.439L280.414 127.636L279.748 128.411C279.969 129.026 280.344 129.593 280.874 130.049C282.009 131.026 283.545 131.239 284.85 130.733L299.487 143.346C299.178 144.712 299.614 146.198 300.749 147.178C301.279 147.633 301.894 147.921 302.535 148.048L303.201 147.273L301.111 145.471L301.625 142.76L304.229 141.85L306.319 143.652L306.985 142.877C306.764 142.265 306.388 141.695 305.858 141.24C304.724 140.263 303.188 140.05 301.883 140.556H301.886Z" fill="#2F3133"/>
<path d="M288.439 134.343C288.439 134.343 289.318 135.132 292.374 131.947C295.428 128.76 290.316 130.064 290.316 130.064C290.316 130.064 287.47 133.824 288.442 134.343H288.439Z" fill="#F0BA93"/>
<path d="M457.449 251.92H0.551178C0.246771 251.92 0 252.167 0 252.472V252.743C0 253.048 0.246771 253.294 0.551178 253.294H457.449C457.753 253.294 458 253.048 458 252.743V252.472C458 252.167 457.753 251.92 457.449 251.92Z" fill="#464A4F"/>
<path d="M249.9 260.8C249.9 260.8 220.5 236 207.1 243.9C193.7 251.8 220.1 287.4 220.1 287.4L230.6 284.4L218.6 262.1C226.6 272.3 240.3 284.4 240.3 284.4L249.9 260.8Z" fill="#2A3051"/>
<path d="M248.1 200C248.1 200 245.4 197.5 236.9 201.6C228.4 205.7 230.3 227 229.4 229.3C228.5 231.6 233.2 246 237.8 265.3C244.5 275.2 266.9 262.1 270.5 256.4C272.7 223.7 254.3 200.1 248.1 200Z" fill="#EE7552"/>
<path d="M246.7 199.4C246.7 199.4 242.2 192.7 241.3 192.1C238 195.2 232.9 196.6 232.9 196.6C232.9 196.6 234.3 205 232.9 209.5C237.1 213.4 246.7 199.4 246.7 199.4Z" fill="#FCA08B"/>
<path d="M249.3 199.4C249.3 199.4 262.2 206.6 268.6 221.3C275 236 280.6 264.9 272.3 277.5C264 290.1 225.9 296.7 219.1 299.9C231.4 295.9 260.3 288.9 261.9 288.9C263.9 296.9 263.6 297.2 263.6 297.2C263.6 297.2 236.7 308.7 220.6 312.3C204.5 315.9 198 303.3 211.8 288.4C225.6 273.6 237.4 269.2 241.2 259.8C242.4 256.9 243.6 247.9 244.7 239.9C244.7 239.9 260.7 251.4 258.6 232.2C257 217.2 249.3 199.4 249.3 199.4Z" fill="#2A3051"/>
<path d="M236.8 268.5C236.8 268.5 233.2 246.1 228.3 236.8C235 236.2 238.4 232.4 239 232.6C239.6 232.9 235.4 212.7 238.1 207C240.8 201.3 245.8 197.1 249.1 199.3C252.4 201.5 253.9 204.3 253.9 204.3L254.4 209.9C254.4 209.9 250.7 200.1 245.4 202.4C241.4 204.1 237.7 215.1 242.7 229.8C247.6 244.5 249 259 249.2 259.4C249.4 259.8 236.8 268.5 236.8 268.5Z" fill="#2A3051"/>
<path d="M179 212.8C179 212.8 176.7 211.4 175.5 210.1C174.3 208.8 172.3 205.4 171.3 204.9C170.3 204.4 169.9 206 170.7 207.3C171.5 208.6 171.9 209.4 171.9 209.4C171.9 209.4 165.5 205.9 163.4 203.9C161.6 202.8 161.5 204.6 162.6 205.7C163.7 206.8 168.1 209.9 168.1 209.9C168.1 209.9 163.1 207 161.5 205.8C159.9 204.6 159.5 205.1 159.3 205.9C159.1 206.7 166.3 211.5 166.8 211.7C163.3 211 159.6 208.4 158.9 208.3C158.3 208.1 157.5 208.8 158.1 209.7C158.7 210.6 164.6 213.7 165.3 213.9C163 213.6 160.2 212.2 159.5 212.1C158.8 212.1 158.5 213.1 160.2 213.9C161.9 214.7 168.2 217.3 170.5 217.5C172.8 217.7 175.6 218.8 175.6 218.8L179 212.8Z" fill="#FFB29C"/>
<path d="M233.7 212.8C233.7 212.8 215.6 221.1 213.9 221.7C212.6 222.1 181.7 213.4 179.6 212.4C177.5 211.3 175.4 216.2 174.7 218.6C177.3 223.1 196.9 232.6 200.4 234.2C207.7 237.4 216 236.7 220.2 235.1C223.5 233.8 242.7 230.6 249 222.6C254.8 215.3 252.4 205.4 248 204.5C244.3 203.7 241.6 208.5 233.7 212.8Z" fill="#EE7552"/>
<path d="M232.4 175C232.4 175 228.9 178.2 228.2 179.7C227.5 181.3 227.9 183.1 226.7 183.8C225.5 184.5 224.6 185 224.1 185.5C223.7 186 224.4 188.1 224.9 188.5C224.4 190.1 224 194.5 224.2 196.1C224.4 197.7 229.4 198.6 233.9 198.2C238.4 197.8 239.8 193.3 241.2 191.5C242.6 189.7 248.6 190 246.8 183.1C245.2 176.2 234 173.5 232.4 175Z" fill="#FFB29C"/>
<path d="M225 189.8C225 189.8 225.5 190.9 229.7 191.1C226.9 193.9 223.8 195.5 225 189.8Z" fill="white"/>
<path d="M232.8 183.6C232.8 183.6 230.5 181.6 229.4 181.4C228.3 181.2 229.4 179.9 230.2 180.5C231.1 181.1 232.6 182.7 232.8 183.6Z" fill="#202441"/>
<path d="M246.9 183.1C246 179.4 242.3 176.9 238.9 175.6L238 179.3C238 179.3 237.8 182.6 238.7 184C238.1 185.6 237.5 187 236.9 188.2L238.9 188.9C239.3 187.3 240.1 188 241.3 187.4C242.7 186.7 245 186.6 245.6 189.3C246.9 188 247.7 186.2 246.9 183.1Z" fill="#202441"/>
<path d="M239.2 179.4C239.2 179.4 237.5 180.7 236.9 175.6C236.2 170.4 237.6 172.6 240 173.3C242.4 173.9 240.1 171.4 240.1 171.4C243.4 170 247 171.5 247.5 174.4C253.2 174.8 251.3 179.4 251.3 179.4C257 180.8 250.8 194.1 241.4 197.9C241.4 195 242.5 186.3 242.5 186.3L239.2 179.4Z" fill="#202441"/>
<path d="M229 184.5C228.9 185.1 229 185.6 229.4 185.7C229.8 185.8 230.1 185.4 230.3 184.8C230.4 184.2 230.3 183.7 229.9 183.6C229.5 183.5 229.1 183.9 229 184.5Z" fill="#202441"/>
<path d="M238.5 192.9C238.5 192.9 239.6 194.4 241.8 192.6C244 190.8 244.2 188.7 243.5 187.5C242.8 186.3 240.7 186.2 239.5 187.3C238.3 188.3 237.2 191.3 238.5 192.9Z" fill="#FFB29C"/>
<path d="M249 192.5C249 192.5 238.5 179.4 231.3 175.6C234.7 168.7 243.6 168.3 248.6 171C253.6 173.6 258.9 183.3 249 192.5Z" fill="#FFCB27"/>
<path d="M240.9 183.4C240.9 183.4 231.8 170.1 227 169.9C222.2 169.7 229.2 178.5 229.2 178.5C229.2 178.5 230.2 176.8 232 177C233.6 177.2 240.9 183.4 240.9 183.4Z" fill="#EEAE18"/>
<path d="M194.499 309.1V147.1L169.599 131.4C169.599 131.4 137.199 195.1 141.599 235.1C145.999 275 168.499 314.6 168.499 314.6L194.499 309.1Z" fill="#9A9FA0"/>
<path d="M51.2996 146.2L169.6 131.5C169.6 131.5 177.2 176.2 185.9 314L51.2996 313.7C51.2996 313.8 35.4996 203.3 51.2996 146.2Z" fill="#ACB4B5"/>
<path d="M103.999 278.9C132.221 278.9 155.099 253.783 155.099 222.8C155.099 191.817 132.221 166.7 103.999 166.7C75.7777 166.7 52.8994 191.817 52.8994 222.8C52.8994 253.783 75.7777 278.9 103.999 278.9Z" fill="#CCCCCC"/>
<path d="M102.199 278.9C129.371 278.9 151.399 253.783 151.399 222.8C151.399 191.817 129.371 166.7 102.199 166.7C75.0266 166.7 52.999 191.817 52.999 222.8C52.999 253.783 75.0266 278.9 102.199 278.9Z" fill="#E0E0E0"/>
<path d="M100.999 263.5C121.213 263.5 137.599 245.278 137.599 222.8C137.599 200.322 121.213 182.1 100.999 182.1C80.7858 182.1 64.3994 200.322 64.3994 222.8C64.3994 245.278 80.7858 263.5 100.999 263.5Z" fill="#9A9FA0"/>
<path d="M104.499 258.2C121.399 258.2 135.099 242.351 135.099 222.8C135.099 203.249 121.399 187.4 104.499 187.4C87.5995 187.4 73.8994 203.249 73.8994 222.8C73.8994 242.351 87.5995 258.2 104.499 258.2Z" fill="#7F8384"/>
<path d="M108.3 254.1C122.217 254.1 133.5 239.952 133.5 222.5C133.5 205.048 122.217 190.9 108.3 190.9C94.382 190.9 83.0996 205.048 83.0996 222.5C83.0996 239.952 94.382 254.1 108.3 254.1Z" fill="#626666"/>
<path d="M46.5996 171.5L167.1 160.1C167.1 159.8 167.1 159.5 167.2 159.2L46.6996 170.6C46.5996 170.9 46.5996 171.2 46.5996 171.5Z" fill="#9A9FA0"/>
<path d="M109.899 150.9C109.599 154.3 106.999 156.9 103.999 156.7C101.099 156.5 98.8993 153.6 99.1993 150.2C99.4993 146.8 102.099 144.2 105.099 144.4C107.999 144.6 110.199 147.5 109.899 150.9Z" fill="#9A9FA0"/>
<path d="M107.899 150.8C107.599 154.2 104.999 156.8 101.999 156.6C99.0993 156.4 96.8993 153.5 97.1993 150.1C97.4993 146.7 100.099 144.1 103.099 144.3C106.099 144.5 108.199 147.4 107.899 150.8Z" fill="#E0E0E0"/>
<path d="M102.099 147.2C101.899 147.2 101.699 147 101.699 146.8V145.2C101.699 145 101.899 144.8 102.099 144.8C102.299 144.8 102.499 145 102.499 145.2V146.8C102.399 147 102.199 147.2 102.099 147.2Z" fill="#7F8384"/>
<path d="M124.5 140.5L147.8 137.8C149.1 137.6 150.2 138.7 150.1 140L149.3 151.9C149.2 152.9 148.4 153.7 147.4 153.8L124 156.4C122.7 156.5 121.6 155.5 121.7 154.1L122.7 142.3C122.7 141.4 123.5 140.6 124.5 140.5Z" fill="#CCCCCC"/>
<path d="M123.9 140.3L147.2 137.6C148.5 137.4 149.6 138.5 149.5 139.8L148.7 151.7C148.6 152.7 147.8 153.5 146.8 153.6L123.4 156.2C122.1 156.3 121 155.3 121.1 153.9L122.1 142.1C122.2 141.2 122.9 140.4 123.9 140.3Z" fill="#E0E0E0"/>
<path d="M158.4 136.4L155.4 136.7C154.9 136.8 154.5 137.2 154.4 137.7L154.3 140.2C154.3 140.8 154.8 141.4 155.5 141.3L158.5 141C159 141 159.5 140.5 159.5 140L159.6 137.5C159.7 136.9 159.1 136.4 158.4 136.4Z" fill="#7F8384"/>
<path d="M154.2 145.7L154 152C154 152.7 154.5 153.2 155.2 153.1L158.1 152.8C158.6 152.7 159 152.3 159.1 151.8L159.4 145.6C159.4 145 158.9 144.4 158.2 144.5L155.3 144.7C154.7 144.8 154.2 145.2 154.2 145.7Z" fill="#7F8384"/>
<path d="M88 144.9L84.2 145.3C83.9 145.3 83.6 145.6 83.6 146L83.5 149.2C83.5 149.6 83.8 149.9 84.2 149.9L87.9 149.6C88.2 149.6 88.5 149.3 88.5 148.9L88.6 145.6C88.8 145.1 88.4 144.8 88 144.9Z" fill="#7F8384"/>
<path d="M83.3996 154L83.0996 160.8C83.0996 161.3 83.4996 161.7 83.9996 161.6L87.4996 161.2C87.8996 161.2 88.1996 160.8 88.1996 160.4L88.4996 153.6C88.4996 153.1 88.0996 152.7 87.5996 152.8L84.0996 153.1C83.6996 153.2 83.3996 153.6 83.3996 154Z" fill="#7F8384"/>
<path d="M17.3995 104.2C17.3995 104.2 14.1996 106 6.49955 112C-1.20045 118.1 -12.8004 136.6 4.59956 137.8C21.9996 139.1 17.3995 104.2 17.3995 104.2Z" fill="#EE7552"/>
<path d="M6.3 182.5C6.3 182.5 5 216.5 4.2 224C3.4 231.5 -16.5 301.4 -16.5 301.4L-24.5 299.9C-24.5 299.9 -22.6 247.4 -12.1 230.3C-8.90001 213.3 -24.3 195.1 -20 175.8C-8.8 175.7 6.3 182.5 6.3 182.5Z" fill="#2A3051"/>
<path d="M13.2002 180.2C13.2002 180.2 18.9002 213.8 19.7002 221.3C20.5002 228.8 18.5002 301.2 18.5002 301.2L10.4002 301.4C10.4002 301.4 -1.49977 253.4 5.00023 230.8C4.60023 213.6 -14.1998 198.9 -13.8998 179.1C-2.99977 176.6 13.2002 180.2 13.2002 180.2Z" fill="#2A3051"/>
<path d="M41.9002 88.4004C41.9002 88.4004 39.7002 93.8004 35.2002 96.9004C38.0002 100.2 38.9002 105.2 40.7002 105.9C41.9002 106.4 44.5002 103 44.5002 103L41.9002 88.4004Z" fill="#FCA08B"/>
<path d="M59.4008 85.7003C59.4008 85.7003 59.6008 90.3003 58.9008 91.8003C58.3008 93.3003 56.7008 94.3003 57.0008 95.6003C57.3008 96.9003 57.5008 99.5003 57.4008 100.1C57.3008 100.7 55.5008 100.1 54.9008 100C54.1008 101.4 51.4008 104.7 50.1008 105.6C48.8008 106.5 45.8008 103.7 43.0008 100.3C40.2008 96.9003 40.9008 93.5003 41.2008 91.3003C41.5008 89.1003 37.8008 84.5003 43.8008 81.0003C49.9008 77.6003 59.4008 83.5003 59.4008 85.7003Z" fill="#FFB29C"/>
<path d="M46.5006 97.6002C46.1006 96.2002 46.2006 94.7002 46.2006 94.6002C46.3006 94.2002 47.1006 91.0002 48.8006 87.4002C50.4006 87.1002 52.6006 84.7002 52.6006 84.7002L54.6006 81.5002C51.4006 80.0002 47.2006 79.1002 44.0006 81.0002C41.3006 82.6002 40.6006 84.4002 40.6006 86.1002C42.9006 84.7002 45.7006 85.0002 46.2006 86.5002C46.7006 88.3002 45.8006 90.5002 44.1006 92.2002C43.2006 93.2002 42.0006 93.7002 41.1006 94.4002C41.1006 96.2002 42.0006 97.4002 42.9006 99.9002C43.2006 100.7 44.8006 102.9 46.1006 103.4C47.7006 100.8 46.8006 101.1 46.5006 97.6002Z" fill="#202441"/>
<path d="M53.4006 102L49.6006 99.7002C49.6006 103.5 51.3006 106.2 53.4006 102Z" fill="white"/>
<path d="M51.8005 84.0001C51.8005 84.0001 57.9005 88.0001 61.9005 85.0001C65.9005 82.0001 65.9005 77.3002 63.8005 76.1002C61.7005 74.9002 59.2005 76.9001 59.2005 76.9001C57.9005 73.7001 52.0005 73.3001 49.7005 74.9001C45.5005 71.2001 43.6005 75.6002 43.6005 75.6002C38.8005 72.6002 35.7005 83.4001 39.5005 92.5001C42.4005 92.1001 44.8005 86.4001 44.8005 86.4001L51.8005 84.0001Z" fill="#202441"/>
<path d="M55.2 94.5003C54.9 95.0003 54.4 95.2003 54.1 95.0003C53.8 94.8003 53.8 94.3003 54.1 93.8003C54.4 93.3003 54.9 93.1003 55.2 93.3003C55.5 93.5003 55.5 94.0003 55.2 94.5003Z" fill="#202441"/>
<path d="M43.5004 92.1004C43.5004 92.1004 41.7004 92.4004 41.4004 89.6004C41.1004 86.8004 42.5004 85.3004 43.8004 85.0004C45.1004 84.7004 46.6004 86.1004 46.7004 87.6004C46.9004 89.1004 45.5004 91.9004 43.5004 92.1004Z" fill="#FFB29C"/>
<path d="M52 91.5001C52 91.5001 54.5 89.6002 57.6 91.6002C58 91.7002 58.7 90.5001 57.7 89.9001C56.8 89.4001 53.6 89.4001 52 91.5001Z" fill="#202441"/>
<path d="M44.4006 110.7C44.4006 110.7 43.5006 103.7 40.3006 99.0001C37.0006 94.3001 35.1006 94.5001 33.5006 96.2001C31.9006 97.9001 29.6006 100.5 29.6006 100.5L44.4006 110.7Z" fill="#FF905F"/>
<path d="M17.4004 104.2C17.4004 104.2 26.3004 98.3 34.0004 100.6C41.7004 102.9 42.5004 107.7 44.3004 109.1C46.1004 110.5 44.8004 121 42.9004 127.5C42.3004 129.5 40.0004 137.8 33.1004 151.4C25.7004 166 12.4004 189.8 12.4004 189.8C12.4004 189.8 -4.49961 180.2 -11.0996 173.1C3.50039 141.6 12.6004 110.7 17.4004 104.2Z" fill="#EE7552"/>
<path d="M42.4004 137.8C45.5004 130.3 45.7004 115.1 45.7004 115.1C45.7004 115.1 46.7004 108.8 41.2004 105.8C35.7004 102.8 31.9004 107.3 27.8004 106.3C23.7004 105.2 28.7004 100.2 28.7004 100.2C28.1004 99.5003 25.6004 100.7 24.6004 101C23.6004 101.3 14.2004 108.2 2.6004 130.1C-1.99961 138.9 -2.29961 147.5 -5.79961 154.6C-10.9996 165.2 -17.3996 163.5 -20.5996 179.7C-8.49961 197 10.0004 195.8 10.0004 195.8C10.0004 195.8 39.3004 145.2 42.4004 137.8ZM29.3004 157.1C26.9004 159.8 14.9004 156.2 15.0004 151.1C15.1004 146.1 25.1004 117 30.5004 111.9C35.8004 106.8 42.8004 111.4 44.0004 114.8C45.1004 118.3 42.2004 126.8 42.2004 126.8C40.2004 136.3 31.7004 154.5 29.3004 157.1Z" fill="#2A3051"/>
<path d="M83.4004 156.9C83.4004 156.9 85.4004 156.7 86.9004 155.8C88.4004 155 91.4004 152.6 92.5004 152.5C93.6004 152.4 93.4004 154 92.2004 154.9C91.0004 155.8 90.4004 156.4 90.4004 156.4C90.4004 156.4 97.4004 155.3 100 154.2C102 153.8 101.5 155.4 100.1 156.1C98.7004 156.7 93.7004 158.1 93.7004 158.1C93.7004 158.1 99.3004 157.2 101.1 156.6C102.9 156 103.1 156.6 103.1 157.4C103.1 158.2 94.8004 160.2 94.3004 160.2C97.8004 160.8 102 159.6 102.6 159.7C103.2 159.8 103.7 160.6 102.8 161.2C101.9 161.8 95.6004 162.7 94.8004 162.6C97.0004 163.1 100 162.7 100.7 162.9C101.3 163.1 101.2 164.2 99.4004 164.3C97.6004 164.5 91.0004 164.7 88.8004 164.1C86.6004 163.5 83.7004 163.6 83.7004 163.6L83.4004 156.9Z" fill="#FFB29C"/>
<path d="M44.4001 115.4C44.4001 115.4 53.9001 138.3 56.8001 142.8C60.9001 149.4 83.7001 154.4 85.4001 156.4C87.1001 158.4 86.3001 162.8 84.0001 164.3C79.8001 165 71.0001 163 67.8001 162.2C66.1001 161.7 58.0001 159.9 54.0001 158.1C50.0001 156.3 45.0001 150.5 43.4001 148C39.5001 141.9 28.0001 131 27.4001 121.2C27.0001 116.6 38.2001 104.8 44.4001 115.4Z" fill="#EE7552"/>
</g>
<defs>
<clipPath id="clip0_167_1618">
<rect width="458" height="253.297" fill="white"/>
</clipPath>
</defs>
</svg>
